# xmcd
#
# Track frame offsets:
#	150
#	19670
#	38050
#	57980
#	84482
#	112175
#	136495
#	154815
#	172270
#	191475
#
# Disc length: 2868 seconds
#
# Revision: 0
# Processed by: cddbd v1.5.2PL0 Copyright (c) Steve Scherf et al.
# Submitted via: EasyCDDAExtractor 16.0.9.1
#
DISCID=870b320a
DTITLE=Sade - N-065 SadeStronger Than Pride
DYEAR=1900
DGENRE=
TTITLE0=Love Is Stronger Than Pride
TTITLE1=Paradise
TTITLE2=Nothing Can Come Between Us
TTITLE3=Haunt Me
TTITLE4=Turn My Back On You
TTITLE5=Keep Looking
TTITLE6=Clean Heart
TTITLE7=Give It Up
TTITLE8=I Never Thought I'd See The Day
TTITLE9=Siempre Hay Esperanza
EXTD=
EXTT0=
EXTT1=
EXTT2=
EXTT3=
EXTT4=
EXTT5=
EXTT6=
EXTT7=
EXTT8=
EXTT9=
PLAYORDER=
